<?xml version="1.0" standalone="no"?>
<!DOCTYPE svg PUBLIC "-//W3C//DTD SVG 20010904//EN"
 "http://www.w3.org/TR/2001/REC-SVG-20010904/DTD/svg10.dtd">
<svg version="1.0" xmlns="http://www.w3.org/2000/svg"
 width="700.000000pt" height="700.000000pt" viewBox="0 0 700.000000 700.000000"
 preserveAspectRatio="xMidYMid meet">
<metadata>
Created by potrace 1.11, written by Peter Selinger 2001-2013
</metadata>
<g transform="translate(0.000000,700.000000) scale(0.100000,-0.100000)"
fill="#000000" stroke="none">
<path d="M3270 6844 c-459 -40 -808 -128 -1181 -299 -1077 -490 -1820 -1523
-1944 -2699 -17 -168 -20 -515 -5 -667 106 -1057 673 -1974 1570 -2539 148
-93 438 -235 610 -298 248 -92 515 -155 785 -188 169 -20 559 -23 715 -5 435
50 802 158 1175 346 872 439 1507 1232 1746 2179 42 165 75 372 90 551 14 182
6 532 -16 695 -49 359 -149 698 -296 1008 l-58 122 40 43 c103 108 198 279
238 427 77 282 25 595 -139 841 -64 95 -222 246 -315 301 -162 94 -304 136
-490 145 -264 12 -508 -73 -712 -248 l-81 -69 -88 41 c-330 152 -662 248
-1026 294 -116 15 -521 28 -618 19z m-887 -2305 c182 -37 369 -124 470 -218
68 -63 135 -170 171 -270 29 -81 31 -94 31 -236 0 -137 -3 -156 -27 -223 -15
-41 -42 -98 -60 -129 -44 -73 -149 -181 -223 -229 -33 -21 -62 -39 -64 -41 -5
-3 77 -113 209 -278 122 -153 230 -310 230 -334 0 -29 -40 -97 -82 -140 -115
-117 -318 -135 -460 -41 -62 41 -104 100 -288 404 l-155 256 -100 -3 -100 -2
-3 -336 c-2 -295 -4 -338 -18 -343 -38 -14 -215 -28 -309 -24 -177 8 -249 61
-274 202 -7 40 -11 348 -11 918 0 971 -5 913 78 968 117 77 344 116 695 119
155 1 207 -3 290 -20z m2122 -438 c277 -74 493 -282 549 -531 51 -226 18 -344
-116 -409 -34 -16 -160 -39 -514 -92 -258 -39 -471 -73 -474 -75 -9 -10 44
-95 79 -126 43 -38 115 -72 201 -94 51 -13 95 -15 215 -11 167 5 243 21 365
78 l73 33 48 -52 c85 -92 99 -199 42 -304 -33 -61 -85 -99 -184 -138 -126 -48
-238 -64 -449 -64 -153 0 -201 4 -277 21 -356 83 -592 315 -679 665 -21 86
-29 314 -15 408 15 97 69 254 112 326 49 81 159 196 241 250 86 57 184 96 309
123 126 28 354 24 474 -8z m1278 -29 c122 -54 187 -151 195 -292 9 -148 -50
-258 -172 -320 -192 -98 -423 -10 -487 185 -7 22 -13 76 -13 120 1 204 147
341 354 332 49 -2 92 -11 123 -25z m21 -1121 c109 -53 166 -146 174 -282 9
-147 -51 -257 -172 -319 -192 -98 -423 -10 -487 185 -7 22 -13 76 -13 120 0
105 35 186 107 250 101 91 261 110 391 46z"/>
<path d="M1948 4064 c-17 -5 -18 -27 -18 -275 l0 -269 143 0 c214 0 297 33
351 141 54 108 26 270 -57 333 -69 53 -130 69 -272 72 -71 2 -138 0 -147 -2z"/>
<path d="M4154 3691 c-112 -29 -192 -105 -225 -212 -11 -37 -19 -74 -17 -82 2
-10 62 -4 300 33 164 26 301 49 304 53 12 12 -15 81 -46 120 -54 64 -111 90
-204 93 -45 2 -95 -1 -112 -5z"/>
</g>
</svg>
