<svg width="51" height="44" viewBox="0 0 51 44" fill="none" xmlns="http://www.w3.org/2000/svg">
<rect width="51" height="44" fill="white"/>
<path d="M5.856 33.916C5.856 34.096 5.844 34.258 5.82 34.45H6.234V34.09H8.82V34.45H9.234C9.21 34.27 9.198 34.108 9.198 33.916V32.68C9.198 32.506 9.204 32.386 9.222 32.248C9.45 32.344 9.618 32.404 10.032 32.542C10.074 32.392 10.134 32.272 10.218 32.146C9.54 31.966 9.174 31.834 8.64 31.576C8.346 31.432 8.16 31.324 7.848 31.12C8.286 30.748 8.574 30.442 8.916 30.004C9 29.896 9.036 29.854 9.09 29.788L8.88 29.518C8.724 29.542 8.562 29.548 8.316 29.548H6.912L7.254 29.044L6.84 28.93C6.774 29.104 6.66 29.29 6.474 29.536C6.03 30.136 5.592 30.52 4.944 30.898C5.058 30.988 5.118 31.06 5.202 31.192C5.688 30.892 6.024 30.61 6.39 30.202C6.672 30.592 6.894 30.832 7.248 31.12C6.534 31.636 5.79 31.984 4.8 32.272C4.908 32.41 4.932 32.458 4.992 32.638C5.382 32.5 5.502 32.452 5.838 32.302C5.85 32.452 5.856 32.542 5.856 32.68V33.916ZM8.538 29.872C8.16 30.352 7.938 30.58 7.542 30.898C7.164 30.604 6.924 30.358 6.612 29.944C6.642 29.908 6.642 29.908 6.666 29.872H8.538ZM6.258 32.218C6.18 32.218 6.138 32.218 6.042 32.212C6.75 31.894 7.038 31.726 7.554 31.354C7.998 31.672 8.442 31.912 9.126 32.206C9.018 32.218 8.934 32.218 8.796 32.218H6.258ZM6.234 32.548H8.82V33.754H6.234V32.548ZM11.64 30.568H11.298C11.112 30.568 10.968 30.556 10.818 30.538V30.922C10.974 30.904 11.124 30.892 11.292 30.892H11.586C11.424 31.57 11.076 32.29 10.656 32.8C10.758 32.902 10.812 32.986 10.878 33.13C11.256 32.626 11.484 32.14 11.67 31.426C11.652 31.678 11.64 32.116 11.64 32.392V33.772C11.64 34.054 11.628 34.246 11.604 34.456H12.024C11.994 34.252 11.988 34.072 11.988 33.772V32.284C11.988 32.248 11.988 32.17 11.982 32.056C11.982 32.002 11.976 31.918 11.976 31.816C11.97 31.612 11.97 31.552 11.958 31.354C12.078 31.726 12.18 31.948 12.378 32.266C12.444 32.134 12.45 32.122 12.588 31.948C12.318 31.624 12.198 31.408 12 30.892H12.162C12.33 30.892 12.45 30.898 12.564 30.916V30.544C12.456 30.562 12.348 30.568 12.162 30.568H11.988V29.566C12.132 29.518 12.294 29.458 12.474 29.386C12.588 29.338 12.594 29.338 12.678 29.302L12.438 29.002C12.378 29.05 12.33 29.074 12.234 29.116C11.844 29.296 11.43 29.404 10.776 29.488C10.854 29.596 10.89 29.668 10.944 29.812C11.238 29.758 11.376 29.734 11.64 29.668V30.568ZM14.082 30.07H13.092C12.858 30.07 12.69 30.064 12.522 30.04V30.406C12.654 30.388 12.84 30.382 13.092 30.382H14.082V30.784H13.32C13.062 30.784 12.912 30.778 12.756 30.766C12.768 30.922 12.774 31.036 12.774 31.27V32.122C12.774 32.35 12.768 32.5 12.756 32.692C12.882 32.68 13.044 32.674 13.29 32.674H14.082V33.106H13.194C12.912 33.106 12.78 33.1 12.624 33.082V33.442C12.792 33.424 12.93 33.418 13.2 33.418H14.082V33.91H13.014C12.708 33.91 12.54 33.904 12.39 33.88V34.252C12.546 34.228 12.714 34.222 13.014 34.222H15.576C15.858 34.222 16.026 34.234 16.2 34.258V33.874C16.032 33.898 15.852 33.91 15.588 33.91H14.418V33.418H15.306C15.528 33.418 15.714 33.43 15.9 33.448V33.076C15.762 33.1 15.612 33.106 15.312 33.106H14.418V32.674H15.288C15.54 32.674 15.678 32.68 15.828 32.692C15.816 32.56 15.81 32.44 15.81 32.122V31.27C15.81 30.976 15.81 30.904 15.828 30.766C15.672 30.778 15.528 30.784 15.282 30.784H14.418V30.382H15.588C15.81 30.382 15.978 30.388 16.146 30.412V30.034C15.978 30.058 15.816 30.07 15.564 30.07H14.418V29.638C14.88 29.59 15.348 29.518 15.672 29.446C15.876 29.398 15.876 29.398 15.918 29.392L15.648 29.068C15.216 29.248 13.992 29.404 13.068 29.404C12.996 29.404 12.882 29.404 12.732 29.398C12.81 29.518 12.84 29.59 12.882 29.722C13.362 29.716 13.686 29.698 14.082 29.668V30.07ZM14.082 31.084V31.576H13.11V31.084H14.082ZM14.418 31.084H15.474V31.576H14.418V31.084ZM14.082 31.87V32.374H13.11V31.87H14.082ZM14.418 31.87H15.474V32.374H14.418V31.87ZM21.732 29.572C21.624 29.614 21.624 29.614 21.222 29.614H18C17.658 29.614 17.49 29.602 17.286 29.572V30.034C17.508 30.01 17.664 30.004 17.994 30.004H21.402C21.228 30.346 21.006 30.64 20.73 30.898C20.448 31.162 20.202 31.306 19.782 31.468C19.938 31.606 19.986 31.66 20.076 31.81C20.856 31.45 21.414 30.904 21.828 30.1C21.9 29.956 21.912 29.938 21.972 29.86L21.732 29.572ZM19.116 30.616C19.134 30.73 19.14 30.772 19.14 30.94C19.14 32.11 18.906 32.722 18.27 33.232C17.958 33.49 17.658 33.64 17.172 33.784C17.316 33.934 17.358 33.994 17.448 34.186C18.174 33.91 18.618 33.61 18.984 33.148C19.392 32.632 19.56 32.038 19.578 31.036C19.584 30.724 19.584 30.724 19.602 30.616H19.116ZM26.958 29.806H24.006C23.682 29.806 23.544 29.8 23.328 29.77V30.25C23.508 30.226 23.652 30.214 24 30.214H27.054C26.844 31.09 26.496 31.792 26.004 32.35C25.464 32.962 24.612 33.49 23.808 33.712C23.952 33.856 24.018 33.94 24.102 34.126C24.984 33.796 25.662 33.358 26.286 32.704C26.832 32.134 27.216 31.384 27.51 30.316C27.516 30.298 27.516 30.298 27.522 30.28C27.606 30.304 27.666 30.31 27.732 30.31C28.11 30.31 28.416 30.004 28.416 29.626C28.416 29.254 28.11 28.948 27.738 28.948C27.36 28.948 27.054 29.254 27.054 29.632C27.054 29.686 27.06 29.74 27.078 29.806H26.958ZM27.738 29.2C27.972 29.2 28.164 29.392 28.164 29.626C28.164 29.866 27.972 30.058 27.738 30.058C27.498 30.058 27.306 29.866 27.306 29.626C27.306 29.392 27.498 29.2 27.738 29.2ZM29.91 29.368C29.928 29.512 29.934 29.614 29.934 29.872V31.474C29.934 31.714 29.928 31.84 29.91 31.978H30.408C30.39 31.834 30.384 31.768 30.384 31.48V29.866C30.384 29.59 30.39 29.512 30.408 29.368H29.91ZM32.562 29.368C32.58 29.5 32.586 29.584 32.586 29.896V30.574C32.586 31.486 32.568 31.762 32.502 32.104C32.388 32.662 32.1 33.046 31.542 33.37C31.23 33.556 30.942 33.658 30.402 33.778C30.552 33.958 30.588 34.018 30.654 34.192C31.164 34.042 31.452 33.928 31.746 33.76C32.334 33.43 32.712 32.992 32.886 32.428C32.994 32.08 33.036 31.552 33.036 30.598V29.89C33.036 29.602 33.042 29.506 33.066 29.368H32.562ZM35.082 31.114C35.244 31.072 35.292 31.06 35.43 31.036C35.484 31.024 35.772 30.976 36.288 30.898C36.09 31.672 35.91 32.2 35.628 32.8C35.418 33.256 35.19 33.652 35.004 33.886L35.412 34.126C35.598 33.79 35.724 33.55 35.802 33.406C36.21 32.578 36.486 31.81 36.708 30.862C36.93 30.838 37.008 30.832 37.14 30.832C37.698 30.832 37.878 31.036 37.878 31.672C37.878 32.344 37.788 32.956 37.626 33.34C37.548 33.532 37.434 33.628 37.284 33.628C37.068 33.628 36.732 33.526 36.39 33.352C36.408 33.46 36.408 33.502 36.408 33.592C36.408 33.67 36.408 33.712 36.396 33.802C36.792 33.97 37.044 34.036 37.302 34.036C37.584 34.036 37.746 33.958 37.89 33.754C38.136 33.406 38.292 32.608 38.292 31.69C38.292 31.198 38.208 30.922 37.998 30.724C37.812 30.544 37.56 30.472 37.134 30.472C36.996 30.472 36.918 30.478 36.78 30.49C36.834 30.202 36.876 29.98 36.906 29.806C36.96 29.464 36.978 29.362 37.02 29.23L36.54 29.176C36.54 29.212 36.54 29.242 36.54 29.254C36.54 29.506 36.462 30.082 36.36 30.526C35.874 30.604 35.25 30.676 35.034 30.682L35.082 31.114ZM38.622 30.322C39.204 30.916 39.618 31.648 39.846 32.476L40.23 32.254C39.948 31.408 39.588 30.79 38.976 30.13L38.622 30.322ZM42.408 29.65C42.942 29.896 42.942 29.896 43.326 30.028C43.728 30.172 43.728 30.172 44.496 30.37L44.664 29.95C44.01 29.848 43.098 29.548 42.63 29.284L42.408 29.65ZM41.91 30.298C41.904 30.406 41.898 30.454 41.868 30.616C41.784 31.12 41.676 31.816 41.616 32.272C41.592 32.464 41.586 32.518 41.568 32.626L42.036 32.638C42.138 32.506 42.18 32.464 42.276 32.392C42.726 32.062 43.344 31.87 43.956 31.87C44.688 31.87 45.12 32.158 45.12 32.65C45.12 33.262 44.49 33.658 43.5 33.658C42.996 33.658 42.426 33.544 41.97 33.358C42.006 33.514 42.012 33.592 42.012 33.73C42.012 33.754 42.012 33.79 42.006 33.844C42.372 33.934 42.372 33.934 42.486 33.964C42.816 34.036 43.176 34.072 43.536 34.072C44.172 34.072 44.646 33.946 45.03 33.676C45.366 33.436 45.57 33.046 45.57 32.644C45.57 31.942 44.94 31.486 43.962 31.486C43.302 31.486 42.642 31.684 42.228 32.002C42.162 32.056 42.12 32.098 42.042 32.182L42.03 32.176C42.042 32.122 42.048 32.11 42.054 32.038C42.072 31.9 42.084 31.858 42.228 30.988C42.282 30.658 42.312 30.514 42.366 30.328L41.91 30.298ZM18.9107 37.572C18.8027 37.614 18.8027 37.614 18.4007 37.614H15.1787C14.8367 37.614 14.6687 37.602 14.4647 37.572V38.034C14.6867 38.01 14.8427 38.004 15.1727 38.004H18.5807C18.4067 38.346 18.1847 38.64 17.9087 38.898C17.6267 39.162 17.3807 39.306 16.9607 39.468C17.1167 39.606 17.1647 39.66 17.2547 39.81C18.0347 39.45 18.5927 38.904 19.0067 38.1C19.0787 37.956 19.0907 37.938 19.1507 37.86L18.9107 37.572ZM16.2947 38.616C16.3127 38.73 16.3187 38.772 16.3187 38.94C16.3187 40.11 16.0847 40.722 15.4487 41.232C15.1367 41.49 14.8367 41.64 14.3507 41.784C14.4947 41.934 14.5367 41.994 14.6267 42.186C15.3527 41.91 15.7967 41.61 16.1627 41.148C16.5707 40.632 16.7387 40.038 16.7567 39.036C16.7627 38.724 16.7627 38.724 16.7807 38.616H16.2947ZM21.8713 37.11C21.8413 37.32 21.7213 37.59 21.4933 37.986C21.0793 38.718 20.6233 39.216 19.9873 39.63C20.1613 39.738 20.2213 39.792 20.3233 39.942C20.9113 39.498 21.3913 38.97 21.7573 38.382L23.7793 38.346C23.5693 39.096 23.2093 39.798 22.7473 40.356C22.1713 41.046 21.5353 41.502 20.6293 41.874C20.7853 41.994 20.8333 42.054 20.9293 42.228C21.8053 41.832 22.4653 41.358 23.0173 40.728C23.5273 40.134 23.9653 39.318 24.2173 38.472C24.2833 38.256 24.2833 38.25 24.3373 38.178L24.0793 37.926C23.9953 37.962 23.9773 37.968 23.7673 37.968C22.0333 37.998 22.0333 37.998 21.9553 38.016C22.0213 37.908 22.0753 37.806 22.2313 37.482C22.3093 37.314 22.3093 37.314 22.3633 37.236L21.8713 37.11ZM27.1633 38.82L26.4013 38.922C26.1973 38.946 25.9873 38.964 25.8853 38.964C25.8613 38.964 25.8373 38.964 25.7953 38.964L25.8493 39.414C26.0413 39.366 26.0413 39.366 26.4373 39.312L27.1633 39.21V40.656C27.1633 41.268 27.2053 41.454 27.3853 41.646C27.5773 41.844 27.9253 41.928 28.6093 41.928C29.0173 41.928 29.4253 41.898 30.0313 41.82C30.1933 41.802 30.2293 41.796 30.3913 41.79L30.3613 41.304C29.8993 41.436 29.2453 41.514 28.6153 41.514C28.1233 41.514 27.8713 41.472 27.7453 41.364C27.6193 41.256 27.5953 41.13 27.5953 40.572V39.156C28.2793 39.06 29.0473 38.952 29.8873 38.838C29.9233 38.832 29.9353 38.832 29.9593 38.826C30.0193 38.814 30.0433 38.808 30.0973 38.796C29.8333 39.342 29.3893 39.798 28.7353 40.188C28.9033 40.278 28.9573 40.32 29.0953 40.476C29.5333 40.17 29.8633 39.864 30.1153 39.54C30.2713 39.336 30.4093 39.114 30.5713 38.772C30.6193 38.682 30.6253 38.67 30.6673 38.604L30.3733 38.358C30.2713 38.412 30.2593 38.418 30.0313 38.442L27.5953 38.766V37.89C27.5953 37.626 27.6013 37.506 27.6253 37.338H27.1393C27.1633 37.536 27.1633 37.578 27.1633 37.89V38.82ZM36.7273 41.676C36.0433 40.95 35.5153 40.476 34.7293 39.876C35.1013 39.414 35.3833 38.94 35.7193 38.196C35.7853 38.046 35.8273 37.974 35.8873 37.902L35.6353 37.644C35.5333 37.68 35.4613 37.686 35.2513 37.692L33.1093 37.716C33.0253 37.716 32.9713 37.716 32.9533 37.716C32.7493 37.716 32.6413 37.71 32.4793 37.686L32.4913 38.172C32.6653 38.142 32.8393 38.13 33.1093 38.124L35.1133 38.094C35.1853 38.094 35.2033 38.094 35.2573 38.088C35.2513 38.106 35.2513 38.112 35.2393 38.13C35.2273 38.16 35.2213 38.166 35.2093 38.202C34.7713 39.252 34.0273 40.2 33.0673 40.908C32.6053 41.25 32.3113 41.412 31.8493 41.598C31.9993 41.748 32.0473 41.814 32.1433 41.994C32.5873 41.772 32.9053 41.574 33.3193 41.274C33.7513 40.956 34.0453 40.68 34.4653 40.2C35.2333 40.794 35.9113 41.448 36.3853 42.054L36.7273 41.676Z" fill="black"/>
<path d="M30.9 3H21.1C19.9406 3 19 3.92383 19 5.0625V22.9375C19 24.0762 19.9406 25 21.1 25H30.9C32.0594 25 33 24.0762 33 22.9375V5.0625C33 3.92383 32.0594 3 30.9 3ZM26 23.625C25.2256 23.625 24.6 23.0105 24.6 22.25C24.6 21.4895 25.2256 20.875 26 20.875C26.7744 20.875 27.4 21.4895 27.4 22.25C27.4 23.0105 26.7744 23.625 26 23.625ZM30.9 18.9844C30.9 19.268 30.6637 19.5 30.375 19.5H21.625C21.3363 19.5 21.1 19.268 21.1 18.9844V5.57812C21.1 5.29453 21.3363 5.0625 21.625 5.0625H30.375C30.6637 5.0625 30.9 5.29453 30.9 5.57812V18.9844Z" fill="#212121"/>
</svg>
